<svg width="81" height="22" viewBox="0 0 81 22" fill="none" xmlns="http://www.w3.org/2000/svg">
<path d="M27.2295 19.0526L29.6834 4.09845H35.515C36.6313 4.09845 37.5479 4.31507 38.2648 4.74831C38.9865 5.17669 39.4918 5.77301 39.7805 6.53727C40.074 7.29666 40.1413 8.17288 39.9825 9.16593C39.8189 10.1639 39.4629 11.0425 38.9144 11.8019C38.3707 12.5564 37.6634 13.1454 36.7925 13.5689C35.9216 13.9925 34.916 14.2042 33.7756 14.2042H30.0587L30.4701 11.6705H33.6818C34.2881 11.6705 34.8053 11.5658 35.2335 11.3565C35.6666 11.1423 36.0106 10.8478 36.2656 10.473C36.5206 10.0933 36.6866 9.65759 36.7636 9.16593C36.8454 8.66454 36.8189 8.22886 36.6842 7.8589C36.5495 7.48894 36.3017 7.20173 35.9408 6.99728C35.5848 6.78796 35.106 6.6833 34.5046 6.6833H32.3971L30.3546 19.0526H27.2295Z" fill="#333333"/>
<path d="M43.4777 9.70627L41.944 19.0526H39.436L40.9697 9.70627H43.4777Z" fill="#333333"/>
<path d="M52.6595 9.70627L51.1258 19.0526H49.0328L46.5067 14.1421H46.4526L45.6406 19.0526H43.1326L44.6663 9.70627H46.7954L49.2854 14.5985H49.3575L50.1514 9.70627H52.6595Z" fill="#333333"/>
<path d="M59.34 12.7913C59.328 12.63 59.2949 12.4886 59.2408 12.3669C59.1866 12.2421 59.1099 12.1372 59.0107 12.052C58.9115 11.9638 58.7882 11.8983 58.6408 11.8557C58.4965 11.8101 58.3266 11.7873 58.1311 11.7873C57.7101 11.7873 57.3267 11.8892 56.9808 12.0931C56.635 12.2969 56.3448 12.5905 56.1102 12.9738C55.8787 13.3572 55.7193 13.8196 55.6321 14.3612C55.5419 14.9088 55.5344 15.3774 55.6095 15.7668C55.6847 16.1562 55.8471 16.4544 56.0967 16.6613C56.3493 16.8682 56.6906 16.9716 57.1207 16.9716C57.5056 16.9716 57.8379 16.9153 58.1176 16.8028C58.3972 16.6902 58.6213 16.5305 58.7897 16.3236C58.9581 16.1167 59.0633 15.8733 59.1054 15.5934L59.5385 15.639H57.4274L57.7161 13.8318H61.8119L61.6044 15.1279C61.4661 15.9798 61.1684 16.7084 60.7113 17.3139C60.2572 17.9163 59.6918 18.3787 59.0152 18.7012C58.3386 19.0207 57.5958 19.1804 56.7869 19.1804C55.8907 19.1804 55.1344 18.9872 54.5179 18.6008C53.9014 18.2144 53.4609 17.6638 53.1962 16.9488C52.9346 16.2338 52.8835 15.3835 53.0429 14.3977C53.1692 13.6249 53.3977 12.9404 53.7285 12.3441C54.0623 11.7477 54.4698 11.2442 54.951 10.8335C55.4321 10.4197 55.9629 10.1079 56.5433 9.89794C57.1237 9.68497 57.7251 9.57849 58.3476 9.57849C58.8919 9.57849 59.3866 9.65759 59.8317 9.8158C60.2767 9.97096 60.6572 10.1931 60.9729 10.4821C61.2887 10.7681 61.5247 11.1073 61.6811 11.4998C61.8405 11.8923 61.9052 12.3228 61.8751 12.7913H59.34Z" fill="#333333"/>
<path d="M68.0461 4.09845L65.5922 19.0526H62.4671L64.921 4.09845H68.0461Z" fill="#333333"/>
<path d="M68.1634 19.0526L70.6173 4.09845H76.4489C77.5652 4.09845 78.4818 4.31507 79.1987 4.74831C79.9204 5.17669 80.4256 5.77301 80.7143 6.53727C81.0078 7.29666 81.0752 8.17288 80.9164 9.16593C80.7528 10.1639 80.3968 11.0425 79.8482 11.8019C79.3045 12.5564 78.5972 13.1454 77.7263 13.5689C76.8555 13.9925 75.8498 14.2042 74.7095 14.2042H70.9926L71.404 11.6705H74.6157C75.2219 11.6705 75.7392 11.5658 76.1674 11.3565C76.6004 11.1423 76.9445 10.8478 77.1995 10.473C77.4545 10.0933 77.6205 9.65759 77.6975 9.16593C77.7793 8.66454 77.7528 8.22886 77.6181 7.8589C77.4834 7.48894 77.2356 7.20173 76.8747 6.99728C76.5187 6.78796 76.0399 6.6833 75.4385 6.6833H73.331L71.2885 19.0526H68.1634Z" fill="#333333"/>
<circle cx="19.2141" cy="11.086" r="9.1071" fill="#FF002E" stroke="#FAFAFA" stroke-width="1.96721"/>
<circle cx="10.1071" cy="11.086" r="9.1071" fill="#00EC50" stroke="#FAFAFA" stroke-width="1.96721"/>
</svg>
