<svg width="20" height="20" viewBox="0 0 20 20" fill="none" xmlns="http://www.w3.org/2000/svg">
<rect width="20" height="20" rx="10" fill="#E6E6E6"/>
<path d="M9.00337 11.9347V11.8239C9.00621 11.3097 9.05451 10.9006 9.14826 10.5966C9.24485 10.2926 9.38121 10.0483 9.55735 9.86364C9.73349 9.67614 9.94798 9.50426 10.2008 9.34801C10.3741 9.24006 10.5289 9.12216 10.6653 8.99432C10.8045 8.86364 10.9139 8.71875 10.9934 8.55966C11.073 8.39773 11.1127 8.21733 11.1127 8.01847C11.1127 7.79403 11.0602 7.59943 10.9551 7.43466C10.85 7.26989 10.7079 7.14205 10.5289 7.05114C10.3528 6.96023 10.1554 6.91477 9.93661 6.91477C9.73491 6.91477 9.54315 6.95881 9.36133 7.04688C9.18235 7.1321 9.0332 7.26278 8.91389 7.43892C8.79741 7.61222 8.73207 7.83239 8.71786 8.09943H7.20082C7.21502 7.55966 7.3457 7.10795 7.59286 6.74432C7.84286 6.38068 8.17241 6.10795 8.5815 5.92614C8.99343 5.74432 9.44798 5.65341 9.94513 5.65341C10.4877 5.65341 10.965 5.74858 11.377 5.93892C11.7917 6.12926 12.1142 6.40057 12.3443 6.75284C12.5772 7.10227 12.6937 7.51705 12.6937 7.99716C12.6937 8.32102 12.6412 8.6108 12.536 8.86648C12.4338 9.12216 12.2875 9.34943 12.0971 9.5483C11.9068 9.74716 11.6809 9.92472 11.4196 10.081C11.1895 10.223 11.0005 10.3707 10.8528 10.5241C10.7079 10.6776 10.6 10.858 10.5289 11.0653C10.4608 11.2699 10.4252 11.5227 10.4224 11.8239V11.9347H9.00337ZM9.74485 14.5938C9.48917 14.5938 9.269 14.5028 9.08434 14.321C8.89968 14.1392 8.80735 13.9176 8.80735 13.6562C8.80735 13.4006 8.89968 13.1818 9.08434 13C9.269 12.8182 9.48917 12.7273 9.74485 12.7273C9.99769 12.7273 10.2164 12.8182 10.4011 13C10.5886 13.1818 10.6824 13.4006 10.6824 13.6562C10.6824 13.8295 10.6383 13.9872 10.5502 14.1293C10.465 14.2713 10.3514 14.3849 10.2093 14.4702C10.0701 14.5526 9.91531 14.5938 9.74485 14.5938Z" fill="black"/>
</svg>
